<svg width="7" height="14" viewBox="0 0 7 14" fill="none" xmlns="http://www.w3.org/2000/svg">
<path d="M4.31445 0.257812V2.28809H3.25488V0.257812H4.31445ZM4.18457 11.4209V13.2529H3.13184V11.4209H4.18457ZM5.07324 9.19238C5.07324 8.93262 5.02311 8.70703 4.92285 8.51562C4.82715 8.32422 4.66536 8.15332 4.4375 8.00293C4.21419 7.85254 3.91341 7.70898 3.53516 7.57227C2.94727 7.35807 2.43229 7.12337 1.99023 6.86816C1.54818 6.6084 1.2041 6.28711 0.958008 5.9043C0.716471 5.52148 0.595703 5.03841 0.595703 4.45508C0.595703 3.89453 0.725586 3.40918 0.985352 2.99902C1.24967 2.58431 1.61654 2.2653 2.08594 2.04199C2.55534 1.81413 3.09993 1.7002 3.71973 1.7002C4.2028 1.7002 4.63574 1.77311 5.01855 1.91895C5.40592 2.06022 5.73633 2.26758 6.00977 2.54102C6.28776 2.81445 6.49967 3.15169 6.64551 3.55273C6.7959 3.94922 6.87109 4.40267 6.87109 4.91309H5.06641C5.06641 4.63053 5.03451 4.37988 4.9707 4.16113C4.9069 3.94238 4.81576 3.75781 4.69727 3.60742C4.57878 3.45247 4.43522 3.33626 4.2666 3.25879C4.10254 3.18132 3.91569 3.14258 3.70605 3.14258C3.40527 3.14258 3.1569 3.19954 2.96094 3.31348C2.76953 3.42741 2.62826 3.58236 2.53711 3.77832C2.45052 3.97428 2.40723 4.19987 2.40723 4.45508C2.40723 4.70117 2.4528 4.91764 2.54395 5.10449C2.63965 5.28678 2.79915 5.45312 3.02246 5.60352C3.25033 5.75391 3.5625 5.90658 3.95898 6.06152C4.55143 6.28027 5.06641 6.52181 5.50391 6.78613C5.94141 7.0459 6.28092 7.36491 6.52246 7.74316C6.764 8.12142 6.88477 8.59993 6.88477 9.17871C6.88477 9.77116 6.74805 10.2725 6.47461 10.6826C6.20573 11.0928 5.82747 11.4049 5.33984 11.6191C4.85221 11.8333 4.28483 11.9404 3.6377 11.9404C3.22298 11.9404 2.81283 11.8857 2.40723 11.7764C2.00163 11.667 1.63249 11.4893 1.2998 11.2432C0.97168 10.9925 0.709635 10.6621 0.513672 10.252C0.317708 9.83724 0.219727 9.3291 0.219727 8.72754H2.03125C2.03125 9.07389 2.07682 9.361 2.16797 9.58887C2.25911 9.81673 2.38216 9.99902 2.53711 10.1357C2.69206 10.2679 2.86523 10.3613 3.05664 10.416C3.24805 10.4707 3.44173 10.498 3.6377 10.498C3.95671 10.498 4.22103 10.4434 4.43066 10.334C4.64486 10.2246 4.80436 10.0719 4.90918 9.87598C5.01855 9.67546 5.07324 9.44759 5.07324 9.19238Z" fill="#222222"/>
</svg>
